# xmcd CD database file
#
# Track frame offsets:
#	150
#	11699
#	32905
#	48180
#
# Disc length: 795 seconds
#
# Revision: 0
# Processed by: cddbd v1.5.1PL0 Copyright (c) Steve Scherf et al.
# Submitted via: CDex 1.51
#
DISCID=28031904
DTITLE=バンビーノ☆ラジオ - スターニー
DYEAR=2002
DGENRE=Rock
TTITLE0=IN
TTITLE1=I'd like to be her
TTITLE2=ラビゴー！！
TTITLE3=気の利く人
EXTD=YEAR: 2002
EXTT0=
EXTT1=
EXTT2=
EXTT3=
PLAYORDER=
